<svg width="38" height="30" viewBox="0 0 38 30" fill="none" xmlns="http://www.w3.org/2000/svg">
<g clip-path="url(#clip0)">
<path d="M20.8868 13.8457H17.0138V10.3652H20.8868V13.8457ZM20.8868 1.875H17.0138V5.43164H20.8868V1.875ZM25.4689 10.3594H21.5958V13.8398H25.4689V10.3594ZM16.3107 6.13477H12.4376V9.65625H16.3107V6.13477ZM20.8868 6.13477H17.0138V9.65625H20.8868V6.13477ZM37.1056 11.9941C36.2618 11.4258 34.3165 11.2207 32.8224 11.502C32.629 10.0957 31.8439 8.87109 30.4142 7.76953L29.5939 7.22461L29.0489 8.04492C27.9708 9.67383 27.6778 12.3574 28.8321 14.127C28.3224 14.4023 27.3204 14.7773 25.9962 14.7539H0.525503C0.0157376 17.7305 0.865347 21.5977 3.10363 24.252C5.27746 26.8242 8.53527 28.1309 12.795 28.1309C22.0177 28.1309 28.8439 23.8828 32.0372 16.166C33.2911 16.1895 35.9982 16.1719 37.3868 13.5176C37.4747 13.3711 37.7736 12.7441 37.8849 12.5156L37.1056 11.9941ZM7.15832 10.3594H3.29113V13.8398H7.16418V10.3594H7.15832ZM11.7345 10.3594H7.86144V13.8398H11.7345V10.3594ZM16.3107 10.3594H12.4376V13.8398H16.3107V10.3594ZM11.7345 6.13477H7.86144V9.65625H11.7345V6.13477Z" fill="black"/>
</g>
<defs>
<clipPath id="clip0">
<rect x="0.384766" width="37.5" height="30" fill="white"/>
</clipPath>
</defs>
</svg>
