<svg width="31" height="31" viewBox="0 0 31 31" fill="none" xmlns="http://www.w3.org/2000/svg">
<g clip-path="url(#clip0)">
<path d="M0 14.9952V14.9514C0.389121 9.86511 2.20502 6.0504 5.36123 3.6388C8.4742 1.18335 11.8466 -0.000525909 15.5216 -0.000525909C19.3696 -0.0443732 22.9582 1.27105 26.1576 3.90188C29.4003 6.48887 31 10.3474 31 15.346V15.653C31 20.6954 29.4003 24.4663 26.1576 27.0532C22.9149 29.6841 19.3264 30.9995 15.4784 30.9995H15.3054C11.5439 30.9557 8.08508 29.6402 4.88563 27.0094C1.68619 24.4224 0.0432357 20.4323 0 14.9952ZM14.5704 8.11122V1.18335H13.5328C13.3166 1.44643 13.1437 1.75337 12.9707 2.01645C12.7978 2.27953 12.6248 2.54262 12.4519 2.84955C12.2789 3.11263 12.0628 3.46341 11.9331 3.72649C11.7601 3.98958 11.6304 4.25266 11.5007 4.55959C11.2413 4.99806 11.0251 5.43654 10.8522 5.83116C10.636 6.22579 10.463 6.62041 10.3333 6.97119C10.5927 7.14658 10.8954 7.36582 11.2413 7.49736C11.6304 7.6289 12.0195 7.76044 12.4086 7.84814C12.841 7.93583 13.2301 7.97968 13.576 8.02353C13.9651 8.06737 14.311 8.11122 14.5704 8.11122ZM16.3863 1.18335V8.06737C16.6025 8.06737 16.8619 8.11122 17.1213 8.06737C17.3808 8.06737 17.6834 8.02353 17.9428 7.97968C18.4184 7.89199 18.9805 7.76044 19.4128 7.6289C19.8884 7.45351 20.3208 7.23428 20.6234 6.97119C20.1046 5.69962 19.5425 4.69113 18.9805 3.72649C18.4184 2.76185 17.7699 1.92875 17.0781 1.2272V1.18335H16.3863ZM11.7169 1.57798V1.53413C11.4142 1.66567 11.1116 1.88491 10.7657 2.01645C10.463 2.14799 10.0739 2.32338 9.77127 2.49877C9.16597 2.8057 8.56067 3.15648 7.95537 3.5511C7.39331 3.94573 6.83124 4.3842 6.35565 4.82268C6.52859 4.99806 6.74477 5.17345 6.91771 5.305C7.09066 5.43654 7.30683 5.61193 7.52301 5.78732C7.69596 5.87501 7.91213 6.00655 8.12831 6.18194C8.34449 6.31348 8.6039 6.48887 8.86332 6.66426C9.2092 5.87501 9.55509 5.04191 9.98745 4.29651C10.4198 3.50726 10.8954 2.76185 11.371 2.10414C11.4142 2.01645 11.4575 1.92875 11.5439 1.84106C11.5872 1.79721 11.6304 1.66567 11.7169 1.57798ZM24.947 4.82268V4.77883C23.8661 3.94573 22.9149 3.24417 21.9637 2.8057C21.0126 2.36723 20.0614 1.92875 19.1967 1.57798C19.8884 2.27953 20.4937 3.15648 20.8828 3.98958C21.3152 4.86652 21.7476 5.78732 22.0934 6.66426C22.2664 6.57657 22.4826 6.48887 22.742 6.31348C22.9582 6.18194 23.2608 6.0504 23.5202 5.91886C23.7796 5.74347 23.9958 5.56808 24.2552 5.39269C24.5146 5.17345 24.7741 4.99806 24.947 4.82268ZM24.212 14.6006H29.1841C29.1841 12.9783 28.8382 11.4436 28.1897 9.86511C27.5844 8.33046 26.7197 7.05889 25.6388 5.96271V5.91886C25.4226 6.26964 25.1199 6.57657 24.8173 6.7958C24.4714 7.01504 24.1688 7.19043 23.8229 7.36582C23.6067 7.49736 23.3905 7.67275 23.1743 7.76044C22.9582 7.89199 22.6555 7.97968 22.4393 8.11122C22.6123 8.462 22.7852 8.85663 22.9582 9.2074C23.0879 9.60203 23.304 10.0405 23.3905 10.4351C23.6499 11.1367 23.8229 11.8821 23.9958 12.6275C24.1255 13.2852 24.212 13.9868 24.212 14.6006ZM8.56067 8.11122V8.06737C8.21478 7.89199 7.82566 7.76044 7.52301 7.58505C7.22036 7.36582 6.91771 7.14658 6.6583 6.97119C6.39888 6.83965 6.13947 6.66426 5.92329 6.48887C5.70711 6.31348 5.53417 6.13809 5.36123 5.96271C4.2371 7.05889 3.41562 8.28661 2.89679 9.73357C2.33473 11.1805 1.94561 12.8029 1.77266 14.5568H7.09066C7.09066 13.329 7.2636 12.1452 7.56625 10.9613C7.82566 9.73357 8.21478 8.81278 8.56067 8.11122ZM14.5704 14.5568V9.51433C14.2245 9.55818 13.7922 9.55818 13.4031 9.51433C12.9707 9.47049 12.5384 9.33895 12.1492 9.2074C11.8033 9.11971 11.371 9.03201 11.0251 8.90047C10.636 8.81278 10.2469 8.63739 9.94421 8.462C9.6848 8.90047 9.46862 9.42664 9.29568 9.99666C9.0795 10.5228 8.94979 11.0928 8.82008 11.619C8.73361 12.1452 8.69038 12.7152 8.64714 13.1975C8.6039 13.6798 8.56067 14.1621 8.56067 14.5568H14.5704ZM16.3863 9.60203V14.5568H22.7852C22.7852 14.2937 22.7852 13.9868 22.742 13.636C22.6555 13.329 22.6123 12.9344 22.569 12.5836C22.4393 12.0575 22.3096 11.4875 22.1367 10.9613C21.9637 10.479 21.7908 9.99666 21.5746 9.60203C21.4881 9.38279 21.4017 9.11971 21.3152 8.94432C21.1855 8.72508 21.0558 8.59354 20.9693 8.462C20.4937 8.81278 19.8452 9.03201 19.0669 9.2074C18.3319 9.38279 17.4672 9.55818 16.689 9.60203H16.3863ZM7.09066 16.0037H1.77266C1.77266 16.7491 1.90237 17.5822 2.11855 18.5907C2.33473 19.6431 2.76709 20.6077 3.24268 21.66C3.45886 22.1862 3.71827 22.7124 3.97768 23.2385C4.28033 23.7209 4.62622 24.247 4.97211 24.7293C5.23152 24.554 5.49093 24.4224 5.70711 24.2909C5.96653 24.1593 6.26918 23.9839 6.52859 23.8524C6.83124 23.7209 7.13389 23.5893 7.47978 23.4139C7.78243 23.2824 8.17155 23.107 8.56067 22.9316C8.21478 21.8354 7.82566 20.7831 7.56625 19.5992C7.2636 18.4592 7.09066 17.3192 7.09066 16.0476V16.0037ZM14.5704 21.1339V16.0037H8.56067C8.56067 16.3545 8.6039 16.8807 8.69038 17.4068C8.73361 17.933 8.86332 18.503 8.94979 19.073C9.12273 19.6869 9.25244 20.3008 9.42538 20.8269C9.59833 21.3531 9.77127 21.7916 9.94421 22.1862C10.7225 21.8793 11.5007 21.66 12.0195 21.5285C12.5816 21.3531 13.1004 21.2216 13.6192 21.1777H14.0948C14.2678 21.1339 14.4407 21.1339 14.5704 21.1339ZM16.3863 16.0037V21.09C16.689 21.1339 17.0349 21.1777 17.3808 21.2216C17.7699 21.2654 18.2455 21.3531 18.6346 21.4408L19.2831 21.5723C19.4993 21.66 19.7587 21.7039 19.9749 21.7477C20.2343 21.8354 20.4937 21.8793 20.7531 21.967C20.9693 22.0547 21.1855 22.0985 21.3584 22.1862C21.9205 20.7392 22.2664 19.5554 22.4826 18.5469C22.6987 17.5822 22.7852 16.7491 22.7852 16.0476V16.0037H16.3863ZM29.1841 16.0476V16.0037H24.212V16.2668C24.1688 17.0999 24.0391 18.0646 23.8661 19.073C23.6932 20.0377 23.304 21.1777 22.7852 22.5808C23.477 22.9316 24.1255 23.2824 24.6444 23.6332C25.1632 23.9839 25.6388 24.3786 25.9847 24.7293C26.7197 23.9839 27.3682 22.9755 27.9303 21.66C28.4923 20.3885 28.8815 19.073 29.0976 17.6699C29.1409 17.4068 29.1409 17.1438 29.1841 16.8807V16.0476ZM14.5704 29.3772V22.537C13.4895 22.7124 12.5816 22.9316 11.8898 23.107C11.198 23.2824 10.6792 23.4578 10.3333 23.6332C10.5927 24.2909 10.8522 24.8609 11.1116 25.3871C11.371 25.8694 11.6736 26.3955 11.9331 26.834C12.0195 27.0094 12.1925 27.1848 12.3222 27.404C12.4519 27.5794 12.5384 27.7987 12.6681 27.974C12.7978 28.1933 12.9275 28.4564 13.0572 28.7194C13.2301 28.9387 13.3598 29.2018 13.5328 29.3772H14.5704ZM16.3863 29.3772H17.3808C17.7699 29.0702 18.159 28.6318 18.4616 28.1494C18.8075 27.6671 19.1967 27.0971 19.4561 26.6148C19.7587 26.0448 20.0614 25.5186 20.3208 24.9924C20.5802 24.4663 20.7964 23.9839 20.9693 23.6332C20.4937 23.4578 19.8452 23.2824 19.1967 23.107C18.5481 22.9316 17.6402 22.7562 16.3863 22.5808V29.3772ZM24.947 25.7817V25.7378C24.8605 25.6063 24.6876 25.4309 24.5579 25.2994C24.4282 25.1678 24.212 24.9924 23.9958 24.8609C23.8229 24.7293 23.6067 24.5978 23.3473 24.4663C23.0879 24.3347 22.742 24.1593 22.4393 23.9839C22.2664 24.3347 21.9637 24.9486 21.5314 25.7817C21.1423 26.6148 20.4505 27.6233 19.5858 28.7194C20.6667 28.5441 21.6179 28.1494 22.4826 27.6233C23.4338 27.1409 24.2552 26.4832 24.947 25.7817ZM8.86332 24.3786V24.3347C8.56067 24.5101 8.08508 24.7293 7.60948 24.9486C7.09066 25.1678 6.52859 25.4309 6.00976 25.7817C6.31241 26.0448 6.61506 26.3078 6.87448 26.4832C7.13389 26.7025 7.43654 26.8779 7.69596 27.0532C8.17155 27.3602 8.73361 27.6671 9.29568 27.9302C9.85774 28.1933 10.5495 28.4564 11.4142 28.7194C11.1116 28.3687 10.8954 27.9302 10.6792 27.5794C10.463 27.2286 10.2036 26.8779 9.98745 26.5271C9.77127 26.1763 9.59833 25.7817 9.42538 25.4309C9.2092 25.0801 9.03626 24.7293 8.86332 24.3786Z" fill="black"/>
</g>
<defs>
<clipPath id="clip0">
<rect width="31" height="31" fill="white"/>
</clipPath>
</defs>
</svg>
