<svg width="30" height="30" viewBox="0 0 30 30" fill="none" xmlns="http://www.w3.org/2000/svg">
<path d="M23.2143 6H1.78571C1.31211 6 0.85791 6.20018 0.523023 6.5565C0.188137 6.91282 0 7.39609 0 7.9V23.1C0 23.6039 0.188137 24.0872 0.523023 24.4435C0.85791 24.7998 1.31211 25 1.78571 25H23.2143C23.6879 25 24.1421 24.7998 24.477 24.4435C24.8119 24.0872 25 23.6039 25 23.1V7.9C25 7.39609 24.8119 6.91282 24.477 6.5565C24.1421 6.20018 23.6879 6 23.2143 6ZM21.25 7.9L12.5 14.341L3.75 7.9H21.25ZM1.78571 23.1V8.7645L11.9911 16.279C12.1405 16.3893 12.3181 16.4484 12.5 16.4484C12.6819 16.4484 12.8595 16.3893 13.0089 16.279L23.2143 8.7645V23.1H1.78571Z" fill="black"/>
</svg>
