<svg width="32" height="30" viewBox="0 0 32 30" fill="none" xmlns="http://www.w3.org/2000/svg">
<g clip-path="url(#clip0)">
<path d="M7.12461 30V9.75899H0.39693V30H7.12461ZM3.76164 6.99377C6.1077 6.99377 7.56801 5.43951 7.56801 3.49719C7.5243 1.51107 6.10779 -6.10352e-05 3.80616 -6.10352e-05C1.50489 -6.10352e-05 0 1.5111 0 3.49719C0 5.4396 1.45995 6.99377 3.71772 6.99377H3.76143H3.76164ZM10.8484 30H17.576V18.6964C17.576 18.0915 17.6197 17.4871 17.7974 17.0547C18.2838 15.846 19.3907 14.5942 21.2492 14.5942C23.6837 14.5942 24.6576 16.4503 24.6576 19.1713V29.9998H31.3849V18.3938C31.3849 12.1766 28.0658 9.28379 23.6394 9.28379C20.0101 9.28379 18.4166 11.3125 17.5313 12.6942H17.5762V9.75857H10.8485C10.9368 11.6579 10.8485 29.9995 10.8485 29.9995L10.8484 30Z" fill="black"/>
</g>
<defs>
<clipPath id="clip0">
<rect width="31.3848" height="30" fill="white"/>
</clipPath>
</defs>
</svg>
