<svg width="33" height="33" viewBox="0 0 33 33" fill="none" xmlns="http://www.w3.org/2000/svg"> <path d="M30.0995 3.93164H2.90031C2.45384 3.93164 2.03586 4.0414 1.65771 4.22232L16.4355 19.0001L19.7476 15.8169C19.7476 15.8169 19.7479 15.8166 19.748 15.8165C19.748 15.8163 19.7483 15.8162 19.7483 15.8162L31.3426 4.22258C30.9644 4.04153 30.5461 3.93164 30.0995 3.93164Z" fill="black"/> <path d="M32.7097 5.5899L21.7988 16.5001L32.7093 27.4106C32.8902 27.0324 33 26.6145 33 26.168V6.83205C33 6.38584 32.8905 5.96792 32.7097 5.5899Z" fill="black"/> <path d="M0.290684 5.58948C0.109764 5.96762 0 6.3856 0 6.83207V26.168C0 26.6142 0.109635 27.0323 0.290426 27.4103L11.2012 16.5L0.290684 5.58948Z" fill="black"/> <path d="M20.4321 17.8673L17.1195 21.0508C16.9307 21.2396 16.6833 21.3341 16.436 21.3341C16.1887 21.3341 15.9412 21.2396 15.7525 21.0508L12.5687 17.8671L1.65771 28.7774C2.03593 28.9585 2.45416 29.0684 2.90076 29.0684H30.1C30.5464 29.0684 30.9644 28.9586 31.3426 28.7777L20.4321 17.8673Z" fill="black"/> </svg> 