<svg width="31" height="30" viewBox="0 0 31 30" fill="none" xmlns="http://www.w3.org/2000/svg">
<g clip-path="url(#clip0)">
<path d="M30.3848 5.8951C29.2815 6.371 28.081 6.71351 26.8443 6.84691C28.1282 6.08415 29.0897 4.87911 29.5483 3.45789C28.3435 4.17459 27.0237 4.67716 25.6474 4.94329C25.0721 4.32832 24.3764 3.8384 23.6035 3.50407C22.8306 3.16974 21.9972 2.99815 21.1551 3.00001C17.7481 3.00001 15.008 5.7617 15.008 9.15072C15.008 9.62662 15.0657 10.1025 15.1594 10.5604C10.0579 10.2936 5.50795 7.8564 2.48307 4.12488C1.93191 5.06629 1.64308 6.13819 1.64663 7.22907C1.64663 9.36343 2.73184 11.2454 4.38669 12.3523C3.41146 12.3139 2.45907 12.0458 1.60697 11.5699V11.6456C1.60697 14.6344 3.7197 17.1113 6.53547 17.6809C6.00678 17.8183 5.46291 17.8885 4.91667 17.8901C4.51648 17.8901 4.13792 17.8504 3.75575 17.7963C4.53451 20.2335 6.80226 22.0037 9.50266 22.0614C7.38993 23.7163 4.74362 24.6897 1.87016 24.6897C1.3546 24.6897 0.878697 24.6717 0.384766 24.614C3.1104 26.3626 6.34439 27.3721 9.82714 27.3721C21.1335 27.3721 27.3202 18.0054 27.3202 9.87539C27.3202 9.6086 27.3202 9.3418 27.3022 9.07501C28.4992 8.19891 29.5483 7.1137 30.3848 5.8951Z" fill="black"/>
</g>
<defs>
<clipPath id="clip0">
<rect x="0.384766" width="30" height="30" fill="white"/>
</clipPath>
</defs>
</svg>
